<svg width="27" height="27" viewBox="0 0 27 27" fill="none" xmlns="http://www.w3.org/2000/svg">
<path fill-rule="evenodd" clip-rule="evenodd" d="M1.83197 20.27L0 27L6.77833 25.1434C8.74774 26.2573 10.9461 27 13.2361 27C20.5183 27 26.5638 20.7805 26.5638 13.4473C26.5638 6.11405 20.5182 0.0803223 13.2361 0.0803223C5.95398 0.0803223 0 6.11405 0 13.4473C0 15.8608 0.641215 18.1815 1.83197 20.27ZM7.55692 22.9621L7.14471 22.73L3.20601 23.7512L4.25938 19.8524L3.98456 19.4347C2.88537 17.671 2.28997 15.5824 2.28997 13.4474C2.28997 7.32087 7.19053 2.4011 13.2361 2.4011C19.2816 2.4011 24.2738 7.27444 24.2738 13.4474C24.2738 19.6204 19.2816 24.6794 13.2819 24.6794C11.2209 24.6794 9.2515 24.0296 7.55692 22.9621Z" fill="white"/>
<path d="M9.38002 7.22807L8.50985 7.18164C8.23503 7.18164 7.96026 7.27449 7.77706 7.46014C7.36486 7.83144 6.67788 8.52762 6.49468 9.45593C6.1741 10.8483 6.67788 12.5192 7.86869 14.19C9.05949 15.8609 11.3495 18.5529 15.3798 19.7132C16.6622 20.0845 17.6698 19.8524 18.4942 19.3419C19.1354 18.9242 19.5476 18.2744 19.685 17.5782L19.8224 16.9284C19.8682 16.7427 19.7766 16.5106 19.5934 16.4179L16.708 15.0719C16.5248 14.979 16.2958 15.0254 16.1584 15.2111L15.0134 16.6963C14.9218 16.7892 14.7844 16.8355 14.647 16.7892C13.8684 16.5106 11.2579 15.3967 9.83804 12.612C9.79223 12.4728 9.79223 12.3335 9.88386 12.2407L10.983 10.9876C11.0747 10.8483 11.1204 10.6627 11.0747 10.5234L9.74647 7.50657C9.70061 7.36729 9.56322 7.22807 9.38002 7.22807Z" fill="#FEFEFE"/>
</svg>
